<mxfile host="65bd71144e">
    <diagram id="_iOPbtojSU_5HbLdEPTw" name="Page-1">
        <mxGraphModel dx="1054" dy="776" grid="1" gridSize="10" guides="1" tooltips="1" connect="1" arrows="1" fold="1" page="1" pageScale="1" pageWidth="850" pageHeight="1100" math="0" shadow="0">
            <root>
                <mxCell id="0"/>
                <mxCell id="1" parent="0"/>
                <mxCell id="7" value="" style="group" vertex="1" connectable="0" parent="1">
                    <mxGeometry x="190" y="260" width="240" height="370" as="geometry"/>
                </mxCell>
                <mxCell id="2" value="" style="rounded=0;whiteSpace=wrap;html=1;" vertex="1" parent="7">
                    <mxGeometry width="240" height="370" as="geometry"/>
                </mxCell>
                <mxCell id="3" value="" style="rounded=0;whiteSpace=wrap;html=1;" vertex="1" parent="7">
                    <mxGeometry y="50" width="240" height="220" as="geometry"/>
                </mxCell>
                <mxCell id="4" value="&lt;font style=&quot;font-size: 24px;&quot;&gt;USER&lt;/font&gt;" style="text;html=1;strokeColor=none;fillColor=none;align=center;verticalAlign=middle;whiteSpace=wrap;rounded=0;" vertex="1" parent="7">
                    <mxGeometry x="90" y="10" width="60" height="30" as="geometry"/>
                </mxCell>
                <mxCell id="6" value="- Name: String&lt;br&gt;- Telephone: Number&lt;br&gt;- Phone: Number&lt;br&gt;- Photo: String&lt;br&gt;- Birthdate: Date&lt;br&gt;- Emai: String&lt;br&gt;- Cep: Number&lt;br&gt;-City: String&lt;br&gt;-Insta String&lt;br&gt;-Github: String" style="text;html=1;strokeColor=none;fillColor=none;align=center;verticalAlign=middle;whiteSpace=wrap;rounded=0;fontSize=18;" vertex="1" parent="7">
                    <mxGeometry y="50" width="240" height="220" as="geometry"/>
                </mxCell>
                <mxCell id="8" value="+ GetAge(): Number&lt;br&gt;+GetSign(): String&lt;br&gt;+Render() : void" style="text;html=1;strokeColor=none;fillColor=none;align=center;verticalAlign=middle;whiteSpace=wrap;rounded=0;fontSize=18;" vertex="1" parent="7">
                    <mxGeometry y="270" width="240" height="100" as="geometry"/>
                </mxCell>
            </root>
        </mxGraphModel>
    </diagram>
</mxfile>